<svg width="209" height="42" viewBox="0 0 209 42" fill="none" xmlns="http://www.w3.org/2000/svg">
<path d="M68.9884 31.8623C68.9884 31.8623 69.0079 31.9693 67.8785 32.4097C66.7426 32.8501 65.464 33.0704 64.0425 33.0704C62.6211 33.0704 61.3619 32.8564 60.239 32.4223C59.1097 31.9882 58.1555 31.3401 57.3702 30.4656C56.5848 29.5973 55.9812 28.5089 55.5593 27.2002C55.1374 25.8915 54.9297 24.3626 54.9297 22.6135C54.9297 21.0721 55.1309 19.6879 55.5398 18.461C55.9487 17.2341 56.5394 16.1834 57.3182 15.3214C58.0971 14.4595 59.0577 13.7988 60.1871 13.3395C61.323 12.8803 62.6211 12.6475 64.088 12.6475C65.107 12.6475 66.152 12.7985 67.223 13.1005C68.2939 13.4025 68.9949 13.9373 68.9949 13.9373V15.9821C68.9949 15.9821 67.7097 15.3781 66.866 15.0446C66.0157 14.7111 65.0875 14.5413 64.0685 14.5413C63.0495 14.5413 62.0694 14.7111 61.2061 15.0572C60.3429 15.3969 59.6029 15.9066 58.9863 16.5861C58.3697 17.2656 57.8894 18.1087 57.5519 19.1216C57.2144 20.1346 57.0456 21.3174 57.0456 22.6764C57.0456 24.199 57.2144 25.5077 57.5519 26.5836C57.8894 27.6595 58.3697 28.5403 58.9863 29.2198C59.6029 29.8993 60.3429 30.3964 61.2061 30.711C62.0694 31.0256 63.0235 31.1828 64.0685 31.1828C65.1135 31.1828 66.0871 31.0193 66.9503 30.6921C67.8136 30.3649 69.0014 29.849 69.0014 29.849V31.8623H68.9884Z" fill="white"/>
<path d="M70.6504 22.6135C70.6504 21.0721 70.8516 19.6879 71.2605 18.461C71.6694 17.2341 72.2601 16.1834 73.0389 15.3214C73.8178 14.4595 74.7784 13.7988 75.9078 13.3395C77.0437 12.8803 78.3418 12.6475 79.8087 12.6475C80.8277 12.6475 81.8727 12.7985 82.9437 13.1005C84.0146 13.4025 84.9947 13.931 85.8774 14.6923C86.7601 15.4473 87.4806 16.4728 88.0453 17.7689C88.61 19.065 88.8891 20.7009 88.8891 22.6702C88.8891 24.3815 88.6814 25.8852 88.266 27.1813C87.8506 28.4774 87.2534 29.5596 86.4746 30.4341C85.6957 31.3087 84.7351 31.9693 83.6057 32.4097C82.4698 32.8501 81.1912 33.0704 79.7697 33.0704C78.3483 33.0704 77.0891 32.8564 75.9662 32.4223C74.8369 31.9882 73.8827 31.3401 73.0974 30.4656C72.312 29.5973 71.7084 28.5089 71.2865 27.2002C70.8581 25.8915 70.6504 24.3626 70.6504 22.6135ZM72.7663 22.6702C72.7663 24.1928 72.9351 25.5014 73.2726 26.5773C73.6101 27.6532 74.0904 28.534 74.707 29.2135C75.3236 29.893 76.0636 30.3901 76.9268 30.7047C77.7901 31.0193 78.7442 31.1766 79.7892 31.1766C80.8342 31.1766 81.8078 31.013 82.6711 30.6858C83.5343 30.3586 84.2677 29.849 84.8714 29.1569C85.475 28.4648 85.9423 27.584 86.2734 26.5144C86.6044 25.4448 86.7731 24.1613 86.7731 22.6764C86.7731 21.3111 86.5979 20.1157 86.2539 19.0965C85.9099 18.0772 85.4231 17.2341 84.8 16.5609C84.1769 15.8877 83.4369 15.3844 82.5932 15.0509C81.7429 14.7174 80.8147 14.5476 79.7957 14.5476C78.7767 14.5476 77.7966 14.7174 76.9333 15.0635C76.0701 15.4032 75.3301 15.9129 74.7135 16.5924C74.0969 17.2719 73.6166 18.115 73.2791 19.1279C72.9351 20.1346 72.7663 21.3174 72.7663 22.6702Z" fill="white"/>
<path d="M91.2317 22.6701C91.2317 20.9336 91.5238 19.4362 92.095 18.1778C92.6727 16.9195 93.4126 15.8813 94.3148 15.0571C95.217 14.2329 96.2295 13.6289 97.3394 13.2325C98.4558 12.8362 99.5398 12.6411 100.598 12.6411C101.954 12.6411 103.252 12.7984 104.479 13.113C105.706 13.4276 106.803 13.7988 107.77 14.2203V31.9441H107.731L107.77 31.963V32.1014C107.77 33.7435 107.549 35.0962 107.114 36.1595C106.673 37.2165 106.095 38.0596 105.375 38.6825C104.654 39.3054 103.817 39.7395 102.876 39.9849C101.935 40.2303 100.955 40.3498 99.9357 40.3498C99.4489 40.3498 98.8842 40.2932 98.2546 40.1799C97.625 40.0667 96.9889 39.9157 96.3399 39.7143C95.6973 39.5193 95.0807 39.2865 94.49 39.0223C93.8994 38.758 91.6406 37.7639 91.2188 37.4745V35.4486C91.5952 35.6688 94.6198 37.1096 95.0937 37.3109C95.5675 37.5122 96.0608 37.701 96.58 37.8709C97.0928 38.0408 97.638 38.1792 98.1962 38.2861C98.7609 38.3931 99.3256 38.4497 99.8967 38.4623C100.656 38.4875 101.383 38.3868 102.078 38.1666C102.772 37.9401 103.382 37.5752 103.908 37.0718C104.434 36.5685 104.856 35.9016 105.167 35.0774C105.479 34.2531 105.634 33.2528 105.634 32.0699V30.9877C105.148 31.3149 104.667 31.6106 104.2 31.8686C103.733 32.1265 103.246 32.3405 102.746 32.5166C102.246 32.6928 101.721 32.8312 101.182 32.9193C100.637 33.0137 100.04 33.0577 99.3905 33.0577C98.1832 33.0577 97.0798 32.8501 96.0802 32.4348C95.0807 32.0196 94.2239 31.3841 93.5035 30.5284C92.783 29.6728 92.2248 28.5969 91.8224 27.2945C91.4329 26.0047 91.2317 24.4632 91.2317 22.6701ZM93.3477 22.7519C93.3477 24.0794 93.484 25.2686 93.7566 26.313C94.0292 27.3574 94.4316 28.2446 94.9703 28.9681C95.5091 29.6917 96.1776 30.239 96.9759 30.6165C97.7743 30.994 98.696 31.1765 99.7474 31.1765C100.247 31.1765 100.773 31.1199 101.312 31.0003C101.857 30.8808 102.389 30.7235 102.908 30.5159C103.428 30.3145 103.927 30.0692 104.395 29.7986C104.862 29.5218 105.271 29.2324 105.628 28.9304V15.3906C105.453 15.2962 105.206 15.2018 104.895 15.1012C104.583 15.0005 104.226 14.9124 103.817 14.8243C103.408 14.7363 102.967 14.667 102.486 14.6167C102.006 14.5664 101.506 14.5349 100.994 14.5349C100.098 14.5349 99.1957 14.6922 98.2871 15.0005C97.3784 15.3088 96.5605 15.7933 95.8336 16.4539C95.1066 17.1145 94.516 17.9576 94.0552 19.002C93.5749 20.0402 93.3477 21.2922 93.3477 22.7519Z" fill="white"/>
<path d="M110.535 15.9003C110.912 15.636 111.425 15.3214 112.074 14.9565C112.716 14.5853 113.456 14.233 114.294 13.8932C115.131 13.5535 116.052 13.2578 117.065 13.0124C118.078 12.767 119.142 12.6475 120.271 12.6475C121.401 12.6475 122.394 12.8488 123.179 13.2515C123.965 13.6541 124.601 14.1826 125.081 14.8496C125.561 15.5165 125.905 16.2778 126.106 17.146C126.308 18.0143 126.412 18.914 126.412 19.8515V32.7746H124.25V19.8326C124.25 19.2412 124.192 18.6309 124.075 18.008C123.958 17.3851 123.737 16.8126 123.4 16.3029C123.069 15.787 122.608 15.3718 122.017 15.0383C121.427 14.7111 120.661 14.5476 119.726 14.5476C119.09 14.5476 118.428 14.6356 117.753 14.8055C117.078 14.9754 116.422 15.183 115.786 15.4284C115.157 15.6738 114.573 15.9317 114.034 16.2149C113.495 16.498 113.047 16.7497 112.677 16.9762V32.7809H110.522V15.9003H110.535Z" fill="white"/>
<path d="M129.072 22.6135C129.072 21.0721 129.273 19.6879 129.682 18.461C130.091 17.2341 130.682 16.1834 131.461 15.3214C132.24 14.4595 133.2 13.7988 134.33 13.3395C135.466 12.8803 136.764 12.6475 138.231 12.6475C139.25 12.6475 140.295 12.7985 141.366 13.1005C142.436 13.4025 143.417 13.931 144.299 14.6923C145.182 15.4473 145.902 16.4728 146.467 17.7689C147.032 19.065 147.311 20.7009 147.311 22.6702C147.311 24.3815 147.103 25.8852 146.688 27.1813C146.272 28.4774 145.675 29.5596 144.896 30.4341C144.118 31.3087 143.157 31.9693 142.028 32.4097C140.892 32.8501 139.613 33.0704 138.192 33.0704C136.77 33.0704 135.511 32.8564 134.388 32.4223C133.259 31.9882 132.305 31.3401 131.519 30.4656C130.734 29.5973 130.13 28.5089 129.708 27.2002C129.28 25.8915 129.072 24.3626 129.072 22.6135ZM131.188 22.6702C131.188 24.1928 131.357 25.5014 131.694 26.5773C132.032 27.6532 132.512 28.534 133.129 29.2135C133.746 29.893 134.485 30.3901 135.349 30.7047C136.212 31.0193 137.166 31.1766 138.211 31.1766C139.256 31.1766 140.23 31.013 141.093 30.6858C141.956 30.3586 142.69 29.849 143.293 29.1569C143.897 28.4648 144.364 27.584 144.695 26.5144C145.026 25.4448 145.195 24.1613 145.195 22.6764C145.195 21.3111 145.02 20.1157 144.676 19.0965C144.332 18.0772 143.845 17.2341 143.222 16.5609C142.599 15.8877 141.859 15.3844 141.015 15.0509C140.165 14.7174 139.237 14.5476 138.218 14.5476C137.199 14.5476 136.218 14.7174 135.355 15.0635C134.492 15.4032 133.752 15.9129 133.135 16.5924C132.519 17.2719 132.038 18.115 131.701 19.1279C131.357 20.1346 131.188 21.3174 131.188 22.6702Z" fill="white"/>
<path d="M149.752 14.8811V12.9873H164.921V14.6231L152.627 30.8054V30.8872H164.921V32.781H149.752V31.1011L162.065 14.9629V14.8811H149.752Z" fill="white"/>
<path d="M169.581 23.7776C169.646 24.9226 169.84 25.9545 170.152 26.8731C170.464 27.7917 170.918 28.5718 171.509 29.2136C172.099 29.8491 172.839 30.3398 173.735 30.6859C174.631 31.0256 175.702 31.2018 176.954 31.2018C177.889 31.2018 178.804 31.0571 179.693 30.7739C180.582 30.4908 181.368 30.1636 182.043 29.7987L182.9 31.3779C182.367 31.6548 181.861 31.9002 181.374 32.1078C180.888 32.3154 180.388 32.4979 179.875 32.6426C179.369 32.7873 178.836 32.8942 178.285 32.9697C177.733 33.0452 177.136 33.0767 176.48 33.0767C174.988 33.0767 173.683 32.8439 172.56 32.3783C171.437 31.9127 170.502 31.2269 169.743 30.3272C168.984 29.4275 168.413 28.3202 168.03 27.0115C167.647 25.7028 167.458 24.1991 167.458 22.5003C167.458 20.9589 167.666 19.581 168.081 18.3667C168.497 17.1524 169.081 16.1142 169.84 15.2712C170.6 14.4218 171.522 13.7737 172.599 13.327C173.676 12.8803 174.884 12.6538 176.214 12.6538C177.194 12.6538 178.135 12.8048 179.044 13.1068C179.953 13.4088 180.764 13.8367 181.465 14.3777C182.173 14.9251 182.737 15.5795 183.166 16.3533C183.594 17.1209 183.808 17.9766 183.808 18.9078C183.808 19.6817 183.698 20.3737 183.471 20.9777C183.244 21.5817 182.88 22.0914 182.374 22.5066C181.868 22.9219 181.199 23.2365 180.381 23.4504C179.557 23.6706 178.551 23.7776 177.357 23.7776H164.914V21.8208H177.052C177.772 21.8208 178.421 21.7894 178.992 21.7327C179.57 21.6761 180.057 21.5503 180.459 21.3552C180.862 21.1665 181.167 20.8897 181.387 20.5373C181.601 20.185 181.712 19.7068 181.712 19.1154C181.712 18.3101 181.537 17.6243 181.18 17.0454C180.829 16.4666 180.375 15.9947 179.823 15.6235C179.271 15.2586 178.674 14.9817 178.019 14.8056C177.37 14.6294 176.746 14.5413 176.143 14.5413C175.182 14.5413 174.312 14.7112 173.54 15.0572C172.768 15.397 172.099 15.8877 171.535 16.5295C170.97 17.165 170.522 17.9326 170.191 18.826C169.86 19.7194 169.652 20.7198 169.568 21.8271V23.7776H169.581Z" fill="white"/>
<path d="M186.385 15.9003C186.762 15.636 187.274 15.3214 187.923 14.9565C188.566 14.5853 189.306 14.233 190.143 13.8932C190.98 13.5535 191.902 13.2578 192.915 13.0124C193.927 12.767 194.992 12.6475 196.121 12.6475C197.25 12.6475 198.243 12.8488 199.029 13.2515C199.814 13.6541 200.45 14.1826 200.931 14.8496C201.411 15.5165 201.755 16.2778 201.956 17.146C202.157 18.0143 202.261 18.914 202.261 19.8515V32.7746H200.1V19.8326C200.1 19.2412 200.041 18.6309 199.924 18.008C199.808 17.3851 199.587 16.8126 199.249 16.3029C198.918 15.787 198.458 15.3718 197.867 15.0383C197.276 14.7111 196.51 14.5476 195.576 14.5476C194.94 14.5476 194.278 14.6356 193.603 14.8055C192.921 14.9754 192.272 15.183 191.636 15.4284C191.006 15.6738 190.422 15.9317 189.883 16.2149C189.345 16.498 188.897 16.7497 188.527 16.9762V32.7809H186.372V15.9003H186.385Z" fill="white"/>
<path d="M202.027 10.0363V9.57074H204.507V10.0363H202.027ZM202.994 12.6348V9.82871H203.546V12.6348H202.994ZM205.058 12.6348V9.56445H205.61V12.6348H205.058ZM206.571 12.6348L205.169 9.56445H205.74L206.72 11.8169L207.7 9.56445H208.271L206.869 12.6348H206.571ZM207.817 12.6348V9.56445H208.369V12.6348H207.817Z" fill="white"/>
<path d="M43.3333 41.778H21.2329C9.5038 41.778 0 32.7431 0 21.6068V20.7826C0 9.63993 9.5038 0.611328 21.2329 0.611328H22.1005C33.8295 0.611328 43.3333 9.63993 43.3333 20.7826V41.778ZM34.6375 27.2316C34.6375 24.048 31.9222 21.4683 28.571 21.4683H28.3259C24.9748 21.4683 22.2594 24.048 22.2594 27.2316V27.4643C22.2594 30.648 24.9748 33.2276 28.3259 33.2276H34.6375V27.2316ZM12.9742 18.6434C12.9742 21.827 15.6895 24.4066 19.0407 24.4066H19.2858C22.6369 24.4066 25.3523 21.827 25.3523 18.6434V18.4106C25.3523 15.227 22.6369 12.6474 19.2858 12.6474H12.9742V18.6434ZM17.3916 33.2276C19.7361 33.2276 21.6369 31.4218 21.6369 29.1946V29.031C21.6369 26.8037 19.7361 24.998 17.3916 24.998H17.2194C14.8749 24.998 12.9742 26.8037 12.9742 29.031V33.2276H17.3916ZM34.6375 12.6474H30.2201C27.8756 12.6474 25.9748 14.4531 25.9748 16.6804V16.8439C25.9748 19.0712 27.8756 20.8769 30.2201 20.8769H30.3923C32.7368 20.8769 34.6375 19.0712 34.6375 16.8439V12.6474Z" fill="white"/>
</svg>
