<?xml version="1.0" encoding="utf-8"?>
<!-- Generator: Adobe Illustrator 28.3.0, SVG Export Plug-In . SVG Version: 6.00 Build 0)  -->
<svg version="1.1" id="Layer_1" xmlns="http://www.w3.org/2000/svg" xmlns:xlink="http://www.w3.org/1999/xlink" x="0px" y="0px"
	 viewBox="0 0 236.41 189.2" style="enable-background:new 0 0 236.41 189.2;" xml:space="preserve">
<style type="text/css">
	.st0{fill:#333333;}
	.st1{fill:url(#SVGID_1_);}
</style>
<g>
	<g>
		<g>
			<path class="st0" d="M21.68,175.71c0,0,0.03,0.17-1.71,0.87c-1.75,0.7-3.72,1.05-5.91,1.05c-2.17,0-4.13-0.34-5.86-1.03
				c-1.74-0.69-3.21-1.72-4.42-3.11c-1.21-1.38-2.14-3.11-2.79-5.19C0.33,166.22,0,163.79,0,161.01c0-2.45,0.31-4.65,0.94-6.6
				s1.54-3.62,2.74-4.99c1.2-1.37,2.68-2.42,4.42-3.15c1.75-0.73,3.75-1.1,6.01-1.1c1.57,0,3.18,0.24,4.83,0.72
				c1.65,0.48,2.73,1.33,2.73,1.33v3.25c0,0-1.98-0.96-3.28-1.49c-1.31-0.53-2.74-0.8-4.31-0.8c-1.61,0-3.08,0.27-4.41,0.82
				c-1.33,0.54-2.47,1.35-3.42,2.43s-1.69,2.42-2.21,4.03c-0.52,1.61-0.78,3.49-0.78,5.65c0,2.42,0.26,4.5,0.78,6.21
				c0.52,1.71,1.26,3.11,2.21,4.19c0.95,1.08,2.09,1.87,3.42,2.37c1.33,0.5,2.8,0.75,4.41,0.75c1.63,0,3.11-0.26,4.44-0.78
				c1.33-0.52,3.16-1.34,3.16-1.34V175.71z"/>
			<path class="st0" d="M24.23,161.01c0-2.45,0.31-4.65,0.94-6.6c0.63-1.95,1.54-3.62,2.74-4.99c1.2-1.37,2.68-2.42,4.42-3.15
				c1.75-0.73,3.75-1.1,6.01-1.1c1.57,0,3.18,0.24,4.83,0.72c1.65,0.48,3.16,1.32,4.52,2.53c1.36,1.2,2.47,2.83,3.34,4.89
				c0.87,2.06,1.3,4.66,1.3,7.79c0,2.72-0.32,5.11-0.96,7.17c-0.64,2.06-1.56,3.78-2.76,5.17c-1.2,1.39-2.68,2.44-4.42,3.14
				c-1.75,0.7-3.72,1.05-5.91,1.05c-2.17,0-4.13-0.34-5.86-1.03c-1.74-0.69-3.21-1.72-4.42-3.11c-1.21-1.38-2.14-3.11-2.79-5.19
				C24.56,166.22,24.23,163.79,24.23,161.01z M27.49,161.1c0,2.42,0.26,4.5,0.78,6.21c0.52,1.71,1.26,3.11,2.21,4.19
				c0.95,1.08,2.09,1.87,3.42,2.37c1.33,0.5,2.8,0.75,4.41,0.75c1.63,0,3.11-0.26,4.44-0.78c1.33-0.52,2.46-1.33,3.39-2.43
				s1.65-2.5,2.16-4.2c0.51-1.7,0.77-3.74,0.77-6.1c0-2.17-0.27-4.07-0.8-5.69c-0.53-1.62-1.28-2.96-2.24-4.03
				c-0.96-1.07-2.1-1.87-3.4-2.4c-1.31-0.53-2.74-0.8-4.31-0.8c-1.61,0-3.08,0.27-4.41,0.82c-1.33,0.54-2.47,1.35-3.42,2.43
				c-0.95,1.08-1.69,2.42-2.21,4.03C27.75,157.07,27.49,158.95,27.49,161.1z"/>
			<path class="st0" d="M55.94,161.1c0-2.76,0.45-5.14,1.33-7.14c0.89-2,2.03-3.65,3.42-4.96c1.39-1.31,2.95-2.27,4.66-2.9
				c1.72-0.63,3.39-0.94,5.02-0.94c2.09,0,4.09,0.25,5.98,0.75c1.89,0.5,3.58,1.09,5.07,1.76v28.16h-0.06l0.06,0.03v0.22
				c0,2.61-0.34,4.76-1.01,6.45s-1.57,3.02-2.68,4.01c-1.11,0.99-2.4,1.68-3.85,2.07c-1.45,0.39-2.96,0.58-4.53,0.58
				c-0.75,0-1.62-0.09-2.59-0.27c-0.97-0.18-1.95-0.42-2.95-0.74c-0.99-0.31-1.94-0.68-2.85-1.1c-0.91-0.42-4.39-2-5.04-2.46v-3.22
				c0.58,0.35,5.24,2.64,5.97,2.96c0.73,0.32,1.49,0.62,2.29,0.89c0.79,0.27,1.63,0.49,2.49,0.66c0.87,0.17,1.74,0.26,2.62,0.28
				c1.17,0.04,2.29-0.12,3.36-0.47c1.07-0.36,2.01-0.94,2.82-1.74c0.81-0.8,1.46-1.86,1.94-3.17c0.48-1.31,0.72-2.9,0.72-4.78
				l0-1.72c-0.75,0.52-1.49,0.99-2.21,1.4c-0.72,0.41-1.47,0.75-2.24,1.03c-0.77,0.28-1.58,0.5-2.41,0.64
				c-0.84,0.15-1.76,0.22-2.76,0.22c-1.86,0-3.56-0.33-5.1-0.99c-1.54-0.66-2.86-1.67-3.97-3.03c-1.11-1.36-1.97-3.07-2.59-5.14
				C56.25,166.4,55.94,163.94,55.94,161.1z M59.2,161.23c0,2.11,0.21,4,0.63,5.66s1.04,3.07,1.87,4.22
				c0.83,1.15,1.86,2.02,3.09,2.62c1.23,0.6,2.65,0.89,4.27,0.89c0.77,0,1.58-0.09,2.41-0.28s1.66-0.44,2.46-0.77
				c0.8-0.32,1.57-0.71,2.29-1.14c0.72-0.44,1.35-0.9,1.9-1.38v-21.51c-0.27-0.15-0.65-0.3-1.13-0.46c-0.48-0.16-1.03-0.3-1.66-0.44
				c-0.63-0.14-1.31-0.25-2.05-0.33c-0.74-0.08-1.51-0.13-2.3-0.13c-1.38,0-2.77,0.25-4.17,0.74c-1.4,0.49-2.66,1.26-3.78,2.31
				c-1.12,1.05-2.03,2.39-2.74,4.05C59.56,156.92,59.2,158.91,59.2,161.23z"/>
			<path class="st0" d="M85.69,150.34c0.58-0.42,1.37-0.92,2.37-1.5c0.99-0.59,2.13-1.15,3.42-1.69c1.29-0.54,2.71-1.01,4.27-1.4
				c1.56-0.39,3.2-0.58,4.94-0.58c1.78,0,3.27,0.32,4.48,0.96c1.21,0.64,2.19,1.48,2.93,2.54c0.74,1.06,1.27,2.27,1.58,3.65
				c0.31,1.38,0.47,2.81,0.47,4.3v20.54h-3.33v-20.57c0-0.94-0.09-1.91-0.27-2.9c-0.18-0.99-0.52-1.9-1.04-2.71
				c-0.51-0.82-1.22-1.48-2.13-2.01c-0.91-0.52-2.09-0.78-3.53-0.78c-0.98,0-2,0.14-3.04,0.41c-1.05,0.27-2.05,0.6-3.03,0.99
				c-0.97,0.39-1.87,0.8-2.7,1.25c-0.83,0.45-1.52,0.85-2.09,1.21v25.12h-3.32V150.34z"/>
			<path class="st0" d="M114.25,161.01c0-2.45,0.31-4.65,0.94-6.6c0.63-1.95,1.54-3.62,2.74-4.99c1.2-1.37,2.68-2.42,4.42-3.15
				c1.75-0.73,3.75-1.1,6.01-1.1c1.57,0,3.18,0.24,4.83,0.72c1.65,0.48,3.16,1.32,4.52,2.53c1.36,1.2,2.47,2.83,3.34,4.89
				c0.87,2.06,1.3,4.66,1.3,7.79c0,2.72-0.32,5.11-0.96,7.17c-0.64,2.06-1.56,3.78-2.76,5.17c-1.2,1.39-2.68,2.44-4.42,3.14
				c-1.75,0.7-3.72,1.05-5.91,1.05c-2.17,0-4.13-0.34-5.86-1.03c-1.74-0.69-3.21-1.72-4.42-3.11c-1.21-1.38-2.14-3.11-2.79-5.19
				C114.57,166.22,114.25,163.79,114.25,161.01z M117.51,161.1c0,2.42,0.26,4.5,0.78,6.21c0.52,1.71,1.26,3.11,2.21,4.19
				c0.95,1.08,2.09,1.87,3.42,2.37c1.33,0.5,2.8,0.75,4.41,0.75c1.63,0,3.11-0.26,4.44-0.78c1.33-0.52,2.46-1.33,3.39-2.43
				c0.93-1.1,1.65-2.5,2.16-4.2c0.51-1.7,0.77-3.74,0.77-6.1c0-2.17-0.27-4.07-0.8-5.69c-0.53-1.62-1.28-2.96-2.24-4.03
				c-0.96-1.07-2.1-1.87-3.4-2.4c-1.31-0.53-2.74-0.8-4.31-0.8c-1.61,0-3.08,0.27-4.41,0.82c-1.33,0.54-2.47,1.35-3.42,2.43
				s-1.69,2.42-2.21,4.03C117.77,157.07,117.51,158.95,117.51,161.1z"/>
			<path class="st0" d="M146.1,148.71v-3.01h23.37l0,2.6l-18.94,25.72v0.13h18.94v3.01H146.1v-2.67l18.97-25.65v-0.13H146.1z"/>
			<path class="st0" d="M176.65,162.86c0.1,1.82,0.4,3.46,0.88,4.92c0.48,1.46,1.18,2.7,2.09,3.72c0.91,1.01,2.05,1.79,3.43,2.34
				c1.38,0.54,3.03,0.82,4.96,0.82c1.44,0,2.85-0.23,4.22-0.68c1.37-0.45,2.58-0.97,3.62-1.55l1.32,2.51
				c-0.82,0.44-1.6,0.83-2.35,1.16c-0.75,0.33-1.52,0.62-2.31,0.85c-0.78,0.23-1.6,0.4-2.45,0.52c-0.85,0.11-1.77,0.17-2.78,0.17
				c-2.3,0-4.31-0.37-6.04-1.11s-3.17-1.83-4.34-3.26c-1.17-1.43-2.05-3.19-2.64-5.27c-0.59-2.08-0.88-4.47-0.88-7.17
				c0-2.45,0.32-4.64,0.96-6.57c0.64-1.93,1.54-3.58,2.71-4.92c1.17-1.35,2.59-2.38,4.25-3.09c1.66-0.71,3.52-1.07,5.57-1.07
				c1.51,0,2.96,0.24,4.36,0.72c1.4,0.48,2.65,1.16,3.73,2.02c1.09,0.87,1.96,1.91,2.62,3.14c0.66,1.22,0.99,2.58,0.99,4.06
				c0,1.23-0.17,2.33-0.52,3.29c-0.35,0.96-0.91,1.77-1.69,2.43c-0.78,0.66-1.81,1.16-3.07,1.5c-1.27,0.35-2.82,0.52-4.66,0.52
				h-19.17v-3.11h18.7c1.11,0,2.11-0.05,2.99-0.14c0.89-0.09,1.64-0.29,2.26-0.6c0.62-0.3,1.09-0.74,1.43-1.3
				c0.33-0.56,0.5-1.32,0.5-2.26c0-1.28-0.27-2.37-0.82-3.29c-0.54-0.92-1.24-1.67-2.09-2.26c-0.85-0.58-1.77-1.02-2.78-1.3
				c-1-0.28-1.96-0.42-2.89-0.42c-1.48,0-2.82,0.27-4.01,0.82c-1.19,0.54-2.22,1.32-3.09,2.34c-0.87,1.01-1.56,2.23-2.07,3.65
				c-0.51,1.42-0.83,3.01-0.96,4.77V162.86z"/>
			<path class="st0" d="M202.55,150.34c0.58-0.42,1.37-0.92,2.37-1.5c0.99-0.59,2.13-1.15,3.42-1.69c1.29-0.54,2.71-1.01,4.27-1.4
				c1.56-0.39,3.2-0.58,4.94-0.58c1.78,0,3.27,0.32,4.48,0.96c1.21,0.64,2.19,1.48,2.93,2.54c0.74,1.06,1.27,2.27,1.58,3.65
				c0.31,1.38,0.47,2.81,0.47,4.3v20.54h-3.33v-20.57c0-0.94-0.09-1.91-0.27-2.9c-0.18-0.99-0.52-1.9-1.04-2.71
				c-0.51-0.82-1.22-1.48-2.13-2.01c-0.91-0.52-2.09-0.78-3.53-0.78c-0.98,0-2,0.14-3.04,0.41c-1.05,0.27-2.05,0.6-3.03,0.99
				c-0.97,0.39-1.87,0.8-2.7,1.25c-0.83,0.45-1.52,0.85-2.09,1.21v25.12h-3.32V150.34z"/>
		</g>
		<g>
			<path class="st0" d="M226.65,141.01v-0.74h3.82v0.74H226.65z M228.14,145.15v-4.46h0.85v4.46H228.14z M231.32,145.15v-4.88h0.85
				v4.88H231.32z M233.64,145.15l-2.16-4.88h0.88l1.51,3.58l1.51-3.58h0.88l-2.16,4.88H233.64z M235.56,145.15v-4.88h0.85v4.88
				H235.56z"/>
		</g>
	</g>
	<linearGradient id="SVGID_1_" gradientUnits="userSpaceOnUse" x1="170.2001" y1="113.3853" x2="73.0871" y2="16.2724">
		<stop  offset="0.15" style="stop-color:#0554F2"/>
		<stop  offset="0.8" style="stop-color:#FF5252"/>
	</linearGradient>
	<path class="st1" d="M170.2,113.39h-57.83c-30.68,0-55.56-24.87-55.56-55.56v-2.27C56.81,24.87,81.69,0,112.37,0l2.27,0
		c30.68,0,55.56,24.87,55.56,55.56V113.39z M147.45,73.32c0-8.77-7.11-15.87-15.87-15.87h-0.65c-8.77,0-15.87,7.11-15.87,15.87v0.65
		c0,8.77,7.11,15.87,15.87,15.87l16.52,0V73.32z M90.76,49.67c0,8.77,7.11,15.87,15.87,15.87h0.65c8.77,0,15.87-7.11,15.87-15.87
		v-0.65c0-8.77-7.11-15.87-15.87-15.87l-16.52,0V49.67z M102.33,89.84c6.14,0,11.11-4.97,11.11-11.11l0-0.45
		c0-6.14-4.97-11.11-11.11-11.11h-0.45c-6.14,0-11.11,4.97-11.11,11.11v11.56L102.33,89.84z M147.45,33.15l-11.56,0
		c-6.14,0-11.11,4.97-11.11,11.11v0.45c0,6.14,4.97,11.11,11.11,11.11h0.45c6.14,0,11.11-4.97,11.11-11.11L147.45,33.15
		C147.45,33.15,147.45,33.15,147.45,33.15z"/>
</g>
</svg>
