<?xml version="1.0" encoding="utf-8"?>
<!-- Generator: Adobe Illustrator 28.3.0, SVG Export Plug-In . SVG Version: 6.00 Build 0)  -->
<svg version="1.1" id="Layer_1" xmlns="http://www.w3.org/2000/svg" xmlns:xlink="http://www.w3.org/1999/xlink" x="0px" y="0px"
	 viewBox="0 0 113.39 113.39" style="enable-background:new 0 0 113.39 113.39;" xml:space="preserve">
<style type="text/css">
	.st0{fill:url(#SVGID_1_);}
</style>
<linearGradient id="SVGID_1_" gradientUnits="userSpaceOnUse" x1="113.3858" y1="113.3858" x2="16.2729" y2="16.2729">
	<stop  offset="0.15" style="stop-color:#0554F2"/>
	<stop  offset="0.8" style="stop-color:#FF5252"/>
</linearGradient>
<path class="st0" d="M113.39,113.39H55.56C24.87,113.39,0,88.51,0,57.83l0-2.27C0,24.87,24.87,0,55.56,0l2.27,0
	c30.68,0,55.56,24.87,55.56,55.56V113.39z M90.64,73.32c0-8.77-7.11-15.87-15.87-15.87h-0.65c-8.77,0-15.87,7.11-15.87,15.87v0.65
	c0,8.77,7.11,15.87,15.87,15.87l16.52,0V73.32z M33.95,49.67c0,8.77,7.11,15.87,15.87,15.87h0.65c8.77,0,15.87-7.11,15.87-15.87
	v-0.65c0-8.77-7.11-15.87-15.87-15.87l-16.52,0V49.67z M45.51,89.84c6.14,0,11.11-4.97,11.11-11.11v-0.45
	c0-6.14-4.97-11.11-11.11-11.11h-0.45c-6.14,0-11.11,4.97-11.11,11.11l0,11.56L45.51,89.84z M90.64,33.15l-11.56,0
	c-6.14,0-11.11,4.97-11.11,11.11v0.45c0,6.14,4.97,11.11,11.11,11.11h0.45c6.14,0,11.11-4.97,11.11-11.11L90.64,33.15
	C90.64,33.15,90.64,33.15,90.64,33.15z"/>
</svg>
