<?xml version="1.0" encoding="utf-8"?>
<!-- Generator: Adobe Illustrator 28.3.0, SVG Export Plug-In . SVG Version: 6.00 Build 0)  -->
<svg version="1.1" id="Layer_1" xmlns="http://www.w3.org/2000/svg" xmlns:xlink="http://www.w3.org/1999/xlink" x="0px" y="0px"
	 viewBox="0 0 236.41 48.93" style="enable-background:new 0 0 236.41 48.93;" xml:space="preserve">
<style type="text/css">
	.st0{fill:#333333;}
</style>
<g>
	<g>
		<path class="st0" d="M21.68,35.44c0,0,0.03,0.17-1.71,0.87c-1.75,0.7-3.72,1.05-5.91,1.05c-2.17,0-4.13-0.34-5.86-1.03
			c-1.74-0.69-3.21-1.72-4.42-3.11c-1.21-1.38-2.14-3.11-2.79-5.19C0.32,25.95,0,23.52,0,20.73c0-2.45,0.31-4.65,0.94-6.6
			s1.54-3.62,2.74-4.99c1.2-1.37,2.68-2.42,4.42-3.15c1.75-0.73,3.75-1.1,6.01-1.1c1.57,0,3.18,0.24,4.83,0.72
			c1.65,0.48,2.73,1.33,2.73,1.33v3.25c0,0-1.98-0.96-3.28-1.49c-1.31-0.53-2.74-0.8-4.31-0.8c-1.61,0-3.08,0.27-4.41,0.82
			c-1.33,0.54-2.47,1.35-3.42,2.43s-1.69,2.42-2.21,4.03c-0.52,1.61-0.78,3.49-0.78,5.65c0,2.42,0.26,4.5,0.78,6.21
			c0.52,1.71,1.26,3.11,2.21,4.19c0.95,1.08,2.09,1.87,3.42,2.37c1.33,0.5,2.8,0.75,4.41,0.75c1.63,0,3.11-0.26,4.44-0.78
			c1.33-0.52,3.16-1.34,3.16-1.34V35.44z"/>
		<path class="st0" d="M24.23,20.73c0-2.45,0.31-4.65,0.94-6.6c0.63-1.95,1.54-3.62,2.74-4.99c1.2-1.37,2.68-2.42,4.42-3.15
			c1.75-0.73,3.75-1.1,6.01-1.1c1.57,0,3.18,0.24,4.83,0.72c1.65,0.48,3.16,1.32,4.52,2.53c1.36,1.2,2.47,2.83,3.34,4.89
			c0.87,2.06,1.3,4.66,1.3,7.79c0,2.72-0.32,5.11-0.96,7.17c-0.64,2.06-1.56,3.78-2.76,5.17c-1.2,1.39-2.68,2.44-4.42,3.14
			c-1.75,0.7-3.72,1.05-5.91,1.05c-2.17,0-4.13-0.34-5.86-1.03c-1.74-0.69-3.21-1.72-4.42-3.11c-1.21-1.38-2.14-3.11-2.79-5.19
			C24.56,25.95,24.23,23.52,24.23,20.73z M27.49,20.83c0,2.42,0.26,4.5,0.78,6.21c0.52,1.71,1.26,3.11,2.21,4.19
			c0.95,1.08,2.09,1.87,3.42,2.37c1.33,0.5,2.8,0.75,4.41,0.75c1.63,0,3.11-0.26,4.44-0.78c1.33-0.52,2.46-1.33,3.39-2.43
			s1.65-2.5,2.16-4.2c0.51-1.7,0.77-3.74,0.77-6.1c0-2.17-0.27-4.07-0.8-5.69c-0.53-1.62-1.28-2.96-2.24-4.03
			c-0.96-1.07-2.1-1.87-3.4-2.4c-1.31-0.53-2.74-0.8-4.31-0.8c-1.61,0-3.08,0.27-4.41,0.82c-1.33,0.54-2.47,1.35-3.42,2.43
			s-1.69,2.42-2.21,4.03C27.75,16.79,27.49,18.67,27.49,20.83z"/>
		<path class="st0" d="M55.94,20.83c0-2.76,0.45-5.14,1.33-7.14c0.89-2,2.03-3.65,3.42-4.96s2.95-2.27,4.66-2.9
			c1.72-0.63,3.39-0.94,5.02-0.94c2.09,0,4.09,0.25,5.98,0.75c1.89,0.5,3.58,1.09,5.07,1.76v28.16h-0.06l0.06,0.03v0.22
			c0,2.61-0.34,4.76-1.01,6.45c-0.68,1.68-1.57,3.02-2.68,4.01c-1.11,0.99-2.4,1.68-3.85,2.07c-1.45,0.39-2.96,0.58-4.53,0.58
			c-0.75,0-1.62-0.09-2.59-0.27c-0.97-0.18-1.95-0.42-2.95-0.74c-0.99-0.31-1.94-0.68-2.85-1.1s-4.39-2-5.04-2.46v-3.22
			c0.58,0.35,5.24,2.64,5.97,2.96c0.73,0.32,1.49,0.62,2.29,0.89c0.79,0.27,1.63,0.49,2.49,0.66c0.87,0.17,1.74,0.26,2.62,0.28
			c1.17,0.04,2.29-0.12,3.36-0.47c1.07-0.36,2.01-0.94,2.82-1.74c0.81-0.8,1.46-1.86,1.94-3.17c0.48-1.31,0.72-2.9,0.72-4.78l0-1.72
			c-0.75,0.52-1.49,0.99-2.21,1.4c-0.72,0.41-1.47,0.75-2.24,1.03c-0.77,0.28-1.58,0.5-2.41,0.64c-0.84,0.15-1.76,0.22-2.76,0.22
			c-1.86,0-3.56-0.33-5.1-0.99c-1.54-0.66-2.86-1.67-3.97-3.03c-1.11-1.36-1.97-3.07-2.59-5.14C56.25,26.13,55.94,23.67,55.94,20.83
			z M59.2,20.95c0,2.11,0.21,4,0.63,5.66s1.04,3.07,1.87,4.22s1.86,2.02,3.09,2.62c1.23,0.6,2.65,0.89,4.27,0.89
			c0.77,0,1.58-0.09,2.41-0.28s1.66-0.44,2.46-0.77c0.8-0.32,1.57-0.71,2.29-1.14c0.72-0.44,1.35-0.9,1.9-1.38V9.26
			c-0.27-0.15-0.65-0.3-1.13-0.46c-0.48-0.16-1.03-0.3-1.66-0.44c-0.63-0.14-1.31-0.25-2.05-0.33c-0.74-0.08-1.51-0.13-2.3-0.13
			c-1.38,0-2.77,0.25-4.17,0.74c-1.4,0.49-2.66,1.26-3.78,2.31c-1.12,1.05-2.03,2.39-2.74,4.05C59.56,16.65,59.2,18.63,59.2,20.95z"
			/>
		<path class="st0" d="M85.69,10.07c0.58-0.42,1.37-0.92,2.37-1.5c0.99-0.59,2.13-1.15,3.42-1.69c1.29-0.54,2.71-1.01,4.27-1.4
			c1.56-0.39,3.2-0.58,4.94-0.58c1.78,0,3.27,0.32,4.48,0.96c1.21,0.64,2.19,1.48,2.93,2.54c0.74,1.06,1.27,2.27,1.58,3.65
			c0.31,1.38,0.47,2.81,0.47,4.3v20.54h-3.33V16.31c0-0.94-0.09-1.91-0.27-2.9c-0.18-0.99-0.52-1.9-1.04-2.71s-1.22-1.48-2.13-2.01
			c-0.91-0.52-2.09-0.78-3.53-0.78c-0.98,0-2,0.14-3.04,0.41c-1.05,0.27-2.05,0.6-3.03,0.99c-0.97,0.39-1.87,0.8-2.7,1.25
			c-0.83,0.45-1.52,0.85-2.09,1.21v25.12h-3.32V10.07z"/>
		<path class="st0" d="M114.24,20.73c0-2.45,0.31-4.65,0.94-6.6s1.54-3.62,2.74-4.99c1.2-1.37,2.68-2.42,4.42-3.15
			c1.75-0.73,3.75-1.1,6.01-1.1c1.57,0,3.18,0.24,4.83,0.72c1.65,0.48,3.16,1.32,4.52,2.53c1.36,1.2,2.47,2.83,3.34,4.89
			c0.87,2.06,1.3,4.66,1.3,7.79c0,2.72-0.32,5.11-0.96,7.17c-0.64,2.06-1.56,3.78-2.76,5.17c-1.2,1.39-2.68,2.44-4.42,3.14
			c-1.75,0.7-3.72,1.05-5.91,1.05c-2.17,0-4.13-0.34-5.86-1.03c-1.74-0.69-3.21-1.72-4.42-3.11c-1.21-1.38-2.14-3.11-2.79-5.19
			C114.57,25.95,114.24,23.52,114.24,20.73z M117.51,20.83c0,2.42,0.26,4.5,0.78,6.21c0.52,1.71,1.26,3.11,2.21,4.19
			c0.95,1.08,2.09,1.87,3.42,2.37c1.33,0.5,2.8,0.75,4.41,0.75c1.63,0,3.11-0.26,4.44-0.78c1.33-0.52,2.46-1.33,3.39-2.43
			s1.65-2.5,2.16-4.2c0.51-1.7,0.77-3.74,0.77-6.1c0-2.17-0.27-4.07-0.8-5.69c-0.53-1.62-1.28-2.96-2.24-4.03
			c-0.96-1.07-2.1-1.87-3.4-2.4c-1.31-0.53-2.74-0.8-4.31-0.8c-1.61,0-3.08,0.27-4.41,0.82c-1.33,0.54-2.47,1.35-3.42,2.43
			s-1.69,2.42-2.21,4.03C117.77,16.79,117.51,18.67,117.51,20.83z"/>
		<path class="st0" d="M146.1,8.44V5.43h23.37l0,2.6l-18.94,25.72v0.13h18.94v3.01H146.1v-2.67l18.97-25.65V8.44H146.1z"/>
		<path class="st0" d="M176.65,22.58c0.1,1.82,0.4,3.46,0.88,4.92c0.48,1.46,1.18,2.7,2.09,3.72c0.91,1.01,2.05,1.79,3.43,2.34
			c1.38,0.54,3.03,0.82,4.96,0.82c1.44,0,2.85-0.23,4.22-0.68c1.37-0.45,2.58-0.97,3.62-1.55l1.32,2.51
			c-0.82,0.44-1.6,0.83-2.35,1.16c-0.75,0.33-1.52,0.62-2.31,0.85c-0.78,0.23-1.6,0.4-2.45,0.52c-0.85,0.11-1.77,0.17-2.78,0.17
			c-2.3,0-4.31-0.37-6.04-1.11c-1.72-0.74-3.17-1.83-4.34-3.26c-1.17-1.43-2.05-3.19-2.64-5.27c-0.59-2.08-0.88-4.47-0.88-7.17
			c0-2.45,0.32-4.64,0.96-6.57c0.64-1.93,1.54-3.58,2.71-4.92c1.17-1.35,2.59-2.38,4.25-3.09s3.52-1.07,5.57-1.07
			c1.51,0,2.96,0.24,4.36,0.72c1.4,0.48,2.65,1.16,3.73,2.02c1.09,0.87,1.96,1.91,2.62,3.14c0.66,1.22,0.99,2.58,0.99,4.06
			c0,1.23-0.17,2.33-0.52,3.29c-0.35,0.96-0.91,1.77-1.69,2.43c-0.78,0.66-1.81,1.16-3.07,1.5c-1.27,0.35-2.82,0.52-4.66,0.52
			h-19.17v-3.11h18.7c1.11,0,2.11-0.05,2.99-0.14c0.89-0.09,1.64-0.29,2.26-0.6c0.62-0.3,1.09-0.74,1.43-1.3
			c0.33-0.56,0.5-1.32,0.5-2.26c0-1.28-0.27-2.37-0.82-3.29c-0.54-0.92-1.24-1.67-2.09-2.26c-0.85-0.58-1.77-1.02-2.78-1.3
			c-1-0.28-1.96-0.42-2.89-0.42c-1.48,0-2.82,0.27-4.01,0.82s-2.22,1.32-3.09,2.34c-0.87,1.01-1.56,2.23-2.07,3.65
			c-0.51,1.42-0.83,3.01-0.96,4.77V22.58z"/>
		<path class="st0" d="M202.55,10.07c0.58-0.42,1.37-0.92,2.37-1.5c0.99-0.59,2.13-1.15,3.42-1.69c1.29-0.54,2.71-1.01,4.27-1.4
			c1.56-0.39,3.2-0.58,4.94-0.58c1.78,0,3.27,0.32,4.48,0.96c1.21,0.64,2.19,1.48,2.93,2.54c0.74,1.06,1.27,2.27,1.58,3.65
			c0.31,1.38,0.47,2.81,0.47,4.3v20.54h-3.33V16.31c0-0.94-0.09-1.91-0.27-2.9c-0.18-0.99-0.52-1.9-1.04-2.71
			c-0.51-0.82-1.22-1.48-2.13-2.01c-0.91-0.52-2.09-0.78-3.53-0.78c-0.98,0-2,0.14-3.04,0.41s-2.05,0.6-3.03,0.99
			c-0.97,0.39-1.87,0.8-2.7,1.25c-0.83,0.45-1.52,0.85-2.09,1.21v25.12h-3.32V10.07z"/>
	</g>
	<g>
		<path class="st0" d="M226.65,0.74V0h3.82v0.74H226.65z M228.14,4.88V0.42h0.85v4.46H228.14z M231.32,4.88V0h0.85v4.88H231.32z
			 M233.64,4.88L231.48,0h0.88l1.51,3.58L235.38,0h0.88l-2.16,4.88H233.64z M235.56,4.88V0h0.85v4.88H235.56z"/>
	</g>
</g>
</svg>
